<mxfile host="app.diagrams.net" modified="2022-06-17T13:36:54.433Z" agent="5.0 (Windows NT 10.0; Win64; x64) AppleWebKit/537.36 (KHTML, like Gecko) Chrome/102.0.0.0 Safari/537.36" etag="pnEO13UvX74Hue9a9AfQ" version="20.0.1" type="github">
  <diagram id="aZ0g6wxPw1BDaKaQBvrw" name="Page-1">
    <mxGraphModel dx="1038" dy="579" grid="1" gridSize="10" guides="1" tooltips="1" connect="1" arrows="1" fold="1" page="1" pageScale="1" pageWidth="827" pageHeight="1169" math="0" shadow="0">
      <root>
        <mxCell id="0" />
        <mxCell id="1" parent="0" />
        <mxCell id="YdIV3DAt4inTQv2E95sJ-26" value="book" style="swimlane;fontStyle=0;childLayout=stackLayout;horizontal=1;startSize=30;horizontalStack=0;resizeParent=1;resizeParentMax=0;resizeLast=0;collapsible=1;marginBottom=0;" vertex="1" parent="1">
          <mxGeometry x="70" y="110" width="140" height="330" as="geometry" />
        </mxCell>
        <mxCell id="YdIV3DAt4inTQv2E95sJ-27" value="book_id" style="text;strokeColor=#6c8ebf;fillColor=#dae8fc;align=left;verticalAlign=middle;spacingLeft=4;spacingRight=4;overflow=hidden;points=[[0,0.5],[1,0.5]];portConstraint=eastwest;rotatable=0;" vertex="1" parent="YdIV3DAt4inTQv2E95sJ-26">
          <mxGeometry y="30" width="140" height="30" as="geometry" />
        </mxCell>
        <mxCell id="YdIV3DAt4inTQv2E95sJ-28" value="title" style="text;strokeColor=none;fillColor=none;align=left;verticalAlign=middle;spacingLeft=4;spacingRight=4;overflow=hidden;points=[[0,0.5],[1,0.5]];portConstraint=eastwest;rotatable=0;" vertex="1" parent="YdIV3DAt4inTQv2E95sJ-26">
          <mxGeometry y="60" width="140" height="30" as="geometry" />
        </mxCell>
        <mxCell id="YdIV3DAt4inTQv2E95sJ-30" value="description" style="text;strokeColor=none;fillColor=none;align=left;verticalAlign=middle;spacingLeft=4;spacingRight=4;overflow=hidden;points=[[0,0.5],[1,0.5]];portConstraint=eastwest;rotatable=0;" vertex="1" parent="YdIV3DAt4inTQv2E95sJ-26">
          <mxGeometry y="90" width="140" height="30" as="geometry" />
        </mxCell>
        <mxCell id="YdIV3DAt4inTQv2E95sJ-31" value="image" style="text;strokeColor=none;fillColor=none;align=left;verticalAlign=middle;spacingLeft=4;spacingRight=4;overflow=hidden;points=[[0,0.5],[1,0.5]];portConstraint=eastwest;rotatable=0;" vertex="1" parent="YdIV3DAt4inTQv2E95sJ-26">
          <mxGeometry y="120" width="140" height="30" as="geometry" />
        </mxCell>
        <mxCell id="YdIV3DAt4inTQv2E95sJ-32" value="view" style="text;strokeColor=none;fillColor=none;align=left;verticalAlign=middle;spacingLeft=4;spacingRight=4;overflow=hidden;points=[[0,0.5],[1,0.5]];portConstraint=eastwest;rotatable=0;" vertex="1" parent="YdIV3DAt4inTQv2E95sJ-26">
          <mxGeometry y="150" width="140" height="30" as="geometry" />
        </mxCell>
        <mxCell id="YdIV3DAt4inTQv2E95sJ-58" value="realease_date" style="text;strokeColor=none;fillColor=none;align=left;verticalAlign=middle;spacingLeft=4;spacingRight=4;overflow=hidden;points=[[0,0.5],[1,0.5]];portConstraint=eastwest;rotatable=0;" vertex="1" parent="YdIV3DAt4inTQv2E95sJ-26">
          <mxGeometry y="180" width="140" height="30" as="geometry" />
        </mxCell>
        <mxCell id="YdIV3DAt4inTQv2E95sJ-33" value="chapter_id" style="text;strokeColor=#82b366;fillColor=#d5e8d4;align=left;verticalAlign=middle;spacingLeft=4;spacingRight=4;overflow=hidden;points=[[0,0.5],[1,0.5]];portConstraint=eastwest;rotatable=0;" vertex="1" parent="YdIV3DAt4inTQv2E95sJ-26">
          <mxGeometry y="210" width="140" height="30" as="geometry" />
        </mxCell>
        <mxCell id="YdIV3DAt4inTQv2E95sJ-34" value="status_id" style="text;strokeColor=#d79b00;fillColor=#ffe6cc;align=left;verticalAlign=middle;spacingLeft=4;spacingRight=4;overflow=hidden;points=[[0,0.5],[1,0.5]];portConstraint=eastwest;rotatable=0;" vertex="1" parent="YdIV3DAt4inTQv2E95sJ-26">
          <mxGeometry y="240" width="140" height="30" as="geometry" />
        </mxCell>
        <mxCell id="YdIV3DAt4inTQv2E95sJ-35" value="category_id" style="text;strokeColor=#d6b656;fillColor=#fff2cc;align=left;verticalAlign=middle;spacingLeft=4;spacingRight=4;overflow=hidden;points=[[0,0.5],[1,0.5]];portConstraint=eastwest;rotatable=0;" vertex="1" parent="YdIV3DAt4inTQv2E95sJ-26">
          <mxGeometry y="270" width="140" height="30" as="geometry" />
        </mxCell>
        <mxCell id="YdIV3DAt4inTQv2E95sJ-52" value="author_id" style="text;strokeColor=#b85450;fillColor=#f8cecc;align=left;verticalAlign=middle;spacingLeft=4;spacingRight=4;overflow=hidden;points=[[0,0.5],[1,0.5]];portConstraint=eastwest;rotatable=0;" vertex="1" parent="YdIV3DAt4inTQv2E95sJ-26">
          <mxGeometry y="300" width="140" height="30" as="geometry" />
        </mxCell>
        <mxCell id="YdIV3DAt4inTQv2E95sJ-36" value="Category" style="swimlane;fontStyle=0;childLayout=stackLayout;horizontal=1;startSize=30;horizontalStack=0;resizeParent=1;resizeParentMax=0;resizeLast=0;collapsible=1;marginBottom=0;" vertex="1" parent="1">
          <mxGeometry x="450" y="110" width="140" height="90" as="geometry" />
        </mxCell>
        <mxCell id="YdIV3DAt4inTQv2E95sJ-37" value="category_id" style="text;strokeColor=#d6b656;fillColor=#fff2cc;align=left;verticalAlign=middle;spacingLeft=4;spacingRight=4;overflow=hidden;points=[[0,0.5],[1,0.5]];portConstraint=eastwest;rotatable=0;" vertex="1" parent="YdIV3DAt4inTQv2E95sJ-36">
          <mxGeometry y="30" width="140" height="30" as="geometry" />
        </mxCell>
        <mxCell id="YdIV3DAt4inTQv2E95sJ-38" value="category" style="text;strokeColor=none;fillColor=none;align=left;verticalAlign=middle;spacingLeft=4;spacingRight=4;overflow=hidden;points=[[0,0.5],[1,0.5]];portConstraint=eastwest;rotatable=0;" vertex="1" parent="YdIV3DAt4inTQv2E95sJ-36">
          <mxGeometry y="60" width="140" height="30" as="geometry" />
        </mxCell>
        <mxCell id="YdIV3DAt4inTQv2E95sJ-41" value="Status" style="swimlane;fontStyle=0;childLayout=stackLayout;horizontal=1;startSize=30;horizontalStack=0;resizeParent=1;resizeParentMax=0;resizeLast=0;collapsible=1;marginBottom=0;" vertex="1" parent="1">
          <mxGeometry x="260" y="250" width="140" height="90" as="geometry" />
        </mxCell>
        <mxCell id="YdIV3DAt4inTQv2E95sJ-42" value="status_id" style="text;strokeColor=#d79b00;fillColor=#ffe6cc;align=left;verticalAlign=middle;spacingLeft=4;spacingRight=4;overflow=hidden;points=[[0,0.5],[1,0.5]];portConstraint=eastwest;rotatable=0;" vertex="1" parent="YdIV3DAt4inTQv2E95sJ-41">
          <mxGeometry y="30" width="140" height="30" as="geometry" />
        </mxCell>
        <mxCell id="YdIV3DAt4inTQv2E95sJ-43" value="status" style="text;strokeColor=none;fillColor=none;align=left;verticalAlign=middle;spacingLeft=4;spacingRight=4;overflow=hidden;points=[[0,0.5],[1,0.5]];portConstraint=eastwest;rotatable=0;" vertex="1" parent="YdIV3DAt4inTQv2E95sJ-41">
          <mxGeometry y="60" width="140" height="30" as="geometry" />
        </mxCell>
        <mxCell id="YdIV3DAt4inTQv2E95sJ-47" value="Author" style="swimlane;fontStyle=0;childLayout=stackLayout;horizontal=1;startSize=30;horizontalStack=0;resizeParent=1;resizeParentMax=0;resizeLast=0;collapsible=1;marginBottom=0;" vertex="1" parent="1">
          <mxGeometry x="450" y="250" width="140" height="90" as="geometry" />
        </mxCell>
        <mxCell id="YdIV3DAt4inTQv2E95sJ-48" value="author_id" style="text;strokeColor=#b85450;fillColor=#f8cecc;align=left;verticalAlign=middle;spacingLeft=4;spacingRight=4;overflow=hidden;points=[[0,0.5],[1,0.5]];portConstraint=eastwest;rotatable=0;" vertex="1" parent="YdIV3DAt4inTQv2E95sJ-47">
          <mxGeometry y="30" width="140" height="30" as="geometry" />
        </mxCell>
        <mxCell id="YdIV3DAt4inTQv2E95sJ-49" value="name_author" style="text;strokeColor=none;fillColor=none;align=left;verticalAlign=middle;spacingLeft=4;spacingRight=4;overflow=hidden;points=[[0,0.5],[1,0.5]];portConstraint=eastwest;rotatable=0;" vertex="1" parent="YdIV3DAt4inTQv2E95sJ-47">
          <mxGeometry y="60" width="140" height="30" as="geometry" />
        </mxCell>
        <mxCell id="YdIV3DAt4inTQv2E95sJ-71" value="" style="rounded=0;orthogonalLoop=1;jettySize=auto;html=1;startArrow=none;startFill=0;endArrow=classic;endFill=1;" edge="1" parent="1" source="YdIV3DAt4inTQv2E95sJ-53" target="YdIV3DAt4inTQv2E95sJ-70">
          <mxGeometry relative="1" as="geometry" />
        </mxCell>
        <mxCell id="YdIV3DAt4inTQv2E95sJ-73" value="" style="edgeStyle=none;rounded=0;orthogonalLoop=1;jettySize=auto;html=1;startArrow=none;startFill=0;endArrow=classic;endFill=1;" edge="1" parent="1" source="YdIV3DAt4inTQv2E95sJ-53" target="YdIV3DAt4inTQv2E95sJ-72">
          <mxGeometry relative="1" as="geometry" />
        </mxCell>
        <mxCell id="YdIV3DAt4inTQv2E95sJ-53" value="Anonymous User" style="shape=umlActor;verticalLabelPosition=bottom;verticalAlign=top;html=1;outlineConnect=0;" vertex="1" parent="1">
          <mxGeometry x="70" y="610" width="30" height="60" as="geometry" />
        </mxCell>
        <mxCell id="YdIV3DAt4inTQv2E95sJ-76" style="edgeStyle=none;rounded=0;orthogonalLoop=1;jettySize=auto;html=1;startArrow=none;startFill=0;endArrow=classic;endFill=1;" edge="1" parent="1" source="YdIV3DAt4inTQv2E95sJ-54">
          <mxGeometry relative="1" as="geometry">
            <mxPoint x="85" y="700" as="targetPoint" />
          </mxGeometry>
        </mxCell>
        <mxCell id="YdIV3DAt4inTQv2E95sJ-79" style="edgeStyle=none;rounded=0;orthogonalLoop=1;jettySize=auto;html=1;startArrow=none;startFill=0;endArrow=classic;endFill=1;entryX=0;entryY=0.5;entryDx=0;entryDy=0;" edge="1" parent="1" source="YdIV3DAt4inTQv2E95sJ-54" target="YdIV3DAt4inTQv2E95sJ-80">
          <mxGeometry relative="1" as="geometry">
            <mxPoint x="210" y="800" as="targetPoint" />
          </mxGeometry>
        </mxCell>
        <mxCell id="YdIV3DAt4inTQv2E95sJ-83" value="" style="edgeStyle=none;rounded=0;orthogonalLoop=1;jettySize=auto;html=1;startArrow=none;startFill=0;endArrow=classic;endFill=1;" edge="1" parent="1" source="YdIV3DAt4inTQv2E95sJ-54" target="YdIV3DAt4inTQv2E95sJ-82">
          <mxGeometry relative="1" as="geometry" />
        </mxCell>
        <mxCell id="YdIV3DAt4inTQv2E95sJ-84" style="edgeStyle=none;rounded=0;orthogonalLoop=1;jettySize=auto;html=1;startArrow=none;startFill=0;endArrow=classic;endFill=1;" edge="1" parent="1" source="YdIV3DAt4inTQv2E95sJ-54" target="YdIV3DAt4inTQv2E95sJ-85">
          <mxGeometry relative="1" as="geometry">
            <mxPoint x="210" y="930" as="targetPoint" />
          </mxGeometry>
        </mxCell>
        <mxCell id="YdIV3DAt4inTQv2E95sJ-54" value="Registered User" style="shape=umlActor;verticalLabelPosition=bottom;verticalAlign=top;html=1;outlineConnect=0;" vertex="1" parent="1">
          <mxGeometry x="70" y="840" width="30" height="60" as="geometry" />
        </mxCell>
        <mxCell id="YdIV3DAt4inTQv2E95sJ-77" style="edgeStyle=none;rounded=0;orthogonalLoop=1;jettySize=auto;html=1;startArrow=none;startFill=0;endArrow=classic;endFill=1;" edge="1" parent="1" source="YdIV3DAt4inTQv2E95sJ-55">
          <mxGeometry relative="1" as="geometry">
            <mxPoint x="85" y="900" as="targetPoint" />
          </mxGeometry>
        </mxCell>
        <mxCell id="YdIV3DAt4inTQv2E95sJ-86" style="edgeStyle=none;rounded=0;orthogonalLoop=1;jettySize=auto;html=1;startArrow=none;startFill=0;endArrow=classic;endFill=1;" edge="1" parent="1" source="YdIV3DAt4inTQv2E95sJ-55" target="YdIV3DAt4inTQv2E95sJ-87">
          <mxGeometry relative="1" as="geometry">
            <mxPoint x="210" y="1010" as="targetPoint" />
          </mxGeometry>
        </mxCell>
        <mxCell id="YdIV3DAt4inTQv2E95sJ-88" style="edgeStyle=none;rounded=0;orthogonalLoop=1;jettySize=auto;html=1;startArrow=none;startFill=0;endArrow=classic;endFill=1;entryX=0;entryY=0.5;entryDx=0;entryDy=0;" edge="1" parent="1" source="YdIV3DAt4inTQv2E95sJ-55" target="YdIV3DAt4inTQv2E95sJ-89">
          <mxGeometry relative="1" as="geometry">
            <mxPoint x="220" y="1080" as="targetPoint" />
          </mxGeometry>
        </mxCell>
        <mxCell id="YdIV3DAt4inTQv2E95sJ-55" value="Premium User" style="shape=umlActor;verticalLabelPosition=bottom;verticalAlign=top;html=1;outlineConnect=0;" vertex="1" parent="1">
          <mxGeometry x="70" y="1030" width="30" height="60" as="geometry" />
        </mxCell>
        <mxCell id="YdIV3DAt4inTQv2E95sJ-60" value="Chapter" style="swimlane;fontStyle=0;childLayout=stackLayout;horizontal=1;startSize=30;horizontalStack=0;resizeParent=1;resizeParentMax=0;resizeLast=0;collapsible=1;marginBottom=0;" vertex="1" parent="1">
          <mxGeometry x="260" y="110" width="140" height="90" as="geometry" />
        </mxCell>
        <mxCell id="YdIV3DAt4inTQv2E95sJ-61" value="chapter_id" style="text;strokeColor=#82b366;fillColor=#d5e8d4;align=left;verticalAlign=middle;spacingLeft=4;spacingRight=4;overflow=hidden;points=[[0,0.5],[1,0.5]];portConstraint=eastwest;rotatable=0;" vertex="1" parent="YdIV3DAt4inTQv2E95sJ-60">
          <mxGeometry y="30" width="140" height="30" as="geometry" />
        </mxCell>
        <mxCell id="YdIV3DAt4inTQv2E95sJ-62" value="chapter" style="text;strokeColor=none;fillColor=none;align=left;verticalAlign=middle;spacingLeft=4;spacingRight=4;overflow=hidden;points=[[0,0.5],[1,0.5]];portConstraint=eastwest;rotatable=0;" vertex="1" parent="YdIV3DAt4inTQv2E95sJ-60">
          <mxGeometry y="60" width="140" height="30" as="geometry" />
        </mxCell>
        <mxCell id="YdIV3DAt4inTQv2E95sJ-64" style="edgeStyle=orthogonalEdgeStyle;rounded=0;orthogonalLoop=1;jettySize=auto;html=1;exitX=1;exitY=0.5;exitDx=0;exitDy=0;entryX=0;entryY=0.5;entryDx=0;entryDy=0;startArrow=baseDash;startFill=0;endArrow=ERmany;endFill=0;" edge="1" parent="1" source="YdIV3DAt4inTQv2E95sJ-33" target="YdIV3DAt4inTQv2E95sJ-61">
          <mxGeometry relative="1" as="geometry" />
        </mxCell>
        <mxCell id="YdIV3DAt4inTQv2E95sJ-65" style="edgeStyle=orthogonalEdgeStyle;rounded=0;orthogonalLoop=1;jettySize=auto;html=1;exitX=1;exitY=0.5;exitDx=0;exitDy=0;entryX=0;entryY=0.5;entryDx=0;entryDy=0;startArrow=baseDash;startFill=0;endArrow=baseDash;endFill=0;" edge="1" parent="1" source="YdIV3DAt4inTQv2E95sJ-34" target="YdIV3DAt4inTQv2E95sJ-42">
          <mxGeometry relative="1" as="geometry">
            <Array as="points">
              <mxPoint x="250" y="365" />
              <mxPoint x="250" y="295" />
            </Array>
          </mxGeometry>
        </mxCell>
        <mxCell id="YdIV3DAt4inTQv2E95sJ-66" style="edgeStyle=orthogonalEdgeStyle;rounded=0;orthogonalLoop=1;jettySize=auto;html=1;exitX=1;exitY=0.5;exitDx=0;exitDy=0;entryX=0;entryY=0.5;entryDx=0;entryDy=0;startArrow=baseDash;startFill=0;endArrow=ERmany;endFill=0;" edge="1" parent="1" source="YdIV3DAt4inTQv2E95sJ-35" target="YdIV3DAt4inTQv2E95sJ-37">
          <mxGeometry relative="1" as="geometry">
            <Array as="points">
              <mxPoint x="420" y="395" />
              <mxPoint x="420" y="155" />
            </Array>
          </mxGeometry>
        </mxCell>
        <mxCell id="YdIV3DAt4inTQv2E95sJ-68" style="edgeStyle=orthogonalEdgeStyle;rounded=0;orthogonalLoop=1;jettySize=auto;html=1;exitX=1;exitY=0.5;exitDx=0;exitDy=0;entryX=0;entryY=0.5;entryDx=0;entryDy=0;startArrow=ERmany;startFill=0;endArrow=baseDash;endFill=0;" edge="1" parent="1" source="YdIV3DAt4inTQv2E95sJ-52" target="YdIV3DAt4inTQv2E95sJ-47">
          <mxGeometry relative="1" as="geometry">
            <Array as="points">
              <mxPoint x="440" y="425" />
              <mxPoint x="440" y="295" />
            </Array>
          </mxGeometry>
        </mxCell>
        <mxCell id="YdIV3DAt4inTQv2E95sJ-70" value="&lt;br&gt;Create Account" style="ellipse;whiteSpace=wrap;html=1;verticalAlign=top;" vertex="1" parent="1">
          <mxGeometry x="220" y="500" width="120" height="60" as="geometry" />
        </mxCell>
        <mxCell id="YdIV3DAt4inTQv2E95sJ-72" value="&lt;br&gt;Login" style="ellipse;whiteSpace=wrap;html=1;verticalAlign=top;" vertex="1" parent="1">
          <mxGeometry x="220" y="570" width="120" height="60" as="geometry" />
        </mxCell>
        <mxCell id="YdIV3DAt4inTQv2E95sJ-78" style="edgeStyle=none;rounded=0;orthogonalLoop=1;jettySize=auto;html=1;exitX=1;exitY=0.3333333333333333;exitDx=0;exitDy=0;exitPerimeter=0;startArrow=none;startFill=0;endArrow=classic;endFill=1;" edge="1" parent="1" source="YdIV3DAt4inTQv2E95sJ-54" target="YdIV3DAt4inTQv2E95sJ-54">
          <mxGeometry relative="1" as="geometry" />
        </mxCell>
        <mxCell id="YdIV3DAt4inTQv2E95sJ-80" value="Comment" style="ellipse;whiteSpace=wrap;html=1;" vertex="1" parent="1">
          <mxGeometry x="220" y="710" width="120" height="70" as="geometry" />
        </mxCell>
        <mxCell id="YdIV3DAt4inTQv2E95sJ-82" value="&lt;br&gt;Like/Vote" style="ellipse;whiteSpace=wrap;html=1;verticalAlign=top;" vertex="1" parent="1">
          <mxGeometry x="210" y="790" width="120" height="60" as="geometry" />
        </mxCell>
        <mxCell id="YdIV3DAt4inTQv2E95sJ-85" value="Upgrade to premium" style="ellipse;whiteSpace=wrap;html=1;" vertex="1" parent="1">
          <mxGeometry x="210" y="870" width="120" height="60" as="geometry" />
        </mxCell>
        <mxCell id="YdIV3DAt4inTQv2E95sJ-87" value="Will not see&lt;br&gt;advertising" style="ellipse;whiteSpace=wrap;html=1;" vertex="1" parent="1">
          <mxGeometry x="210" y="940" width="120" height="60" as="geometry" />
        </mxCell>
        <mxCell id="YdIV3DAt4inTQv2E95sJ-89" value="Save book to storage" style="ellipse;whiteSpace=wrap;html=1;" vertex="1" parent="1">
          <mxGeometry x="210" y="1010" width="120" height="70" as="geometry" />
        </mxCell>
      </root>
    </mxGraphModel>
  </diagram>
</mxfile>
